<svg width="1373" height="1373" viewBox="0 0 1373 1373" fill="none" xmlns="http://www.w3.org/2000/svg">
<rect width="1373" height="1373" fill="#D9D9D9" fill-opacity="0.01"/>
<path fill-rule="evenodd" clip-rule="evenodd" d="M694.071 204.579C694.633 204.366 689.121 199.461 688.514 198.783C681.935 191.448 677.653 183.797 669.564 178.232C611.958 138.6 583.079 62.3224 568.9 181.643C566.022 205.866 552.507 225.91 566.103 252.732C576.857 273.946 733.414 214.877 682.686 188.761" fill="#CED4DA"/>
<path d="M694.071 204.579C694.633 204.366 689.121 199.461 688.514 198.783C681.935 191.448 677.653 183.797 669.564 178.232C611.958 138.6 583.079 62.3224 568.9 181.643C566.022 205.866 552.507 225.91 566.103 252.732C576.857 273.946 733.414 214.877 682.686 188.761" stroke="black" stroke-width="12.7287" stroke-linecap="square" stroke-linejoin="bevel"/>
<path fill-rule="evenodd" clip-rule="evenodd" d="M1053.35 901.527C1064.57 915.09 1031.65 941.104 1042.64 964.039C1089.72 1062.3 1186.06 924.263 1141.63 838.616C1103.16 742.101 1083.28 751.243 1057.5 744.244C1051.93 733.892 1031.66 603.924 1016.91 542.106C1003.84 487.323 994.414 467.114 989.716 410.987C987.838 388.558 1028.6 374.659 1036.19 352.608C1037.49 348.81 1062.02 342.212 1065.77 343.643C1087.31 351.863 1156.69 334.756 1139.84 296.814C1132.47 280.208 998.221 227.719 968.62 238.657C949.543 245.706 950.117 258.699 927.573 257.673C900.335 256.435 789.394 196.655 759.894 192.747C592.639 170.587 591.908 192.515 429.978 260.434C400.049 272.988 358.58 239.349 326.249 255.27C307.997 276.067 199.889 289.521 245.095 346.838C255.763 346.549 284.546 348.802 316.507 350.393C325.669 332.014 399.673 388.901 374.917 373.526C373.516 372.656 411.344 413.09 407.864 442.656C405.372 554.689 427.885 594.482 456.389 703.438C479.119 765.048 451.072 850.247 459.262 919.676C466.196 978.453 513.081 1054.63 520.438 1113C522.745 1131.3 555.049 1153.68 576.5 1177C599.047 1201.51 611.077 1219.88 625.938 1235C645.107 1254.5 649.5 1220.5 676.939 1251C750.438 1263 534.311 1010.39 584.523 995.518C597.633 991.636 619.637 1003.12 634.629 1003.05C731.618 1002.62 823.299 1000.42 911.154 953.917C941.826 937.682 942.067 913.805 976.551 907.678C993.116 904.735 997.876 884.948 1011.04 893.148C1020.08 900.116 1058.35 900.199 1052.36 901.264" fill="#CED4DA"/>
<path d="M1053.35 901.527C1064.57 915.09 1031.65 941.104 1042.64 964.039C1089.72 1062.3 1186.06 924.263 1141.63 838.616C1103.16 742.101 1083.28 751.243 1057.5 744.244C1051.93 733.892 1031.66 603.924 1016.91 542.106C1003.84 487.323 994.414 467.114 989.716 410.987C987.838 388.558 1028.6 374.659 1036.19 352.608C1037.49 348.81 1062.02 342.212 1065.77 343.643C1087.31 351.863 1156.69 334.756 1139.84 296.814C1132.47 280.208 998.221 227.719 968.62 238.657C949.543 245.706 950.117 258.699 927.573 257.673C900.335 256.435 789.394 196.655 759.894 192.747C592.639 170.587 591.908 192.515 429.978 260.434C400.049 272.988 358.58 239.349 326.249 255.27C307.997 276.067 199.889 289.521 245.095 346.838C255.763 346.549 284.546 348.802 316.507 350.393C325.669 332.014 399.673 388.901 374.917 373.526C373.516 372.656 411.344 413.09 407.864 442.656C405.372 554.689 427.885 594.482 456.389 703.438C479.119 765.048 451.072 850.247 459.262 919.676C466.196 978.453 513.081 1054.63 520.438 1113C522.745 1131.3 555.049 1153.68 576.5 1177C599.047 1201.51 611.077 1219.88 625.938 1235C645.107 1254.5 649.5 1220.5 676.939 1251C750.438 1263 534.311 1010.39 584.523 995.518C597.633 991.636 619.637 1003.12 634.629 1003.05C731.618 1002.62 823.299 1000.42 911.154 953.917C941.826 937.682 942.067 913.805 976.551 907.678C993.116 904.735 997.876 884.948 1011.04 893.148C1020.08 900.116 1058.35 900.199 1052.36 901.264" stroke="black" stroke-width="12.7287" stroke-linecap="square" stroke-linejoin="bevel"/>
<path fill-rule="evenodd" clip-rule="evenodd" d="M996.967 853.422C993.654 834.774 1003.71 801.571 992.072 765.713C978.422 723.658 917.984 656.738 918.297 613.685C918.601 571.986 978.216 570.109 957.076 523.627C934.737 474.511 871.751 461.533 849.674 415.453C839.385 393.979 978.054 364.694 932.032 311.238C914.926 291.37 827.119 238.08 804.169 228.5C770.074 214.267 743.4 207.29 705.188 205.55C478.791 214.851 488.221 286.69 439.397 402.413C412.845 465.346 543.478 444.547 522.272 479.073C501.535 512.834 458.297 571.715 462.437 617.314C469.651 696.726 528.342 644.717 543.999 697.862C556.828 741.405 541.038 827.157 540.01 870.919C538.701 926.565 700.483 991.491 740.791 999.578C804.596 1012.38 1018.61 895 1008.61 838.728" fill="#8A929A"/>
<path d="M996.967 853.422C993.654 834.774 1003.71 801.571 992.072 765.713C978.422 723.658 917.984 656.738 918.297 613.685C918.601 571.986 978.216 570.109 957.076 523.627C934.737 474.511 871.751 461.533 849.674 415.453C839.385 393.979 978.054 364.694 932.032 311.238C914.926 291.37 827.119 238.08 804.169 228.5C770.074 214.267 743.4 207.29 705.188 205.55C478.791 214.851 488.221 286.69 439.397 402.413C412.845 465.346 543.478 444.547 522.272 479.073C501.535 512.834 458.297 571.715 462.437 617.314C469.651 696.726 528.342 644.717 543.999 697.862C556.828 741.405 541.038 827.157 540.01 870.919C538.701 926.565 700.483 991.491 740.791 999.578C804.596 1012.38 1018.61 895 1008.61 838.728" stroke="#8A929A" stroke-width="12.7287" stroke-linecap="square" stroke-linejoin="bevel"/>
<path fill-rule="evenodd" clip-rule="evenodd" d="M771.573 947.77C808.614 909.605 732.211 586.265 720.722 521.603C707.89 449.385 682.951 340.782 653.243 273.551C651.025 264.352 639.314 231.407 633.293 236.63C592.17 272.316 652.004 406.048 654.309 448.98C658.738 531.469 686.506 613.726 699.347 695.501C706.135 738.727 742.331 958.722 769.595 947.124" fill="#495057"/>
<path d="M771.573 947.77C808.614 909.605 732.211 586.265 720.722 521.603C707.89 449.385 682.951 340.782 653.243 273.551C651.025 264.352 639.314 231.407 633.293 236.63C592.17 272.316 652.004 406.048 654.309 448.98C658.738 531.469 686.506 613.726 699.347 695.501C706.135 738.727 742.331 958.722 769.595 947.124" stroke="#495057" stroke-width="12.7287" stroke-linecap="square" stroke-linejoin="bevel"/>
<path fill-rule="evenodd" clip-rule="evenodd" d="M749.343 1067.27C869.025 1074.2 963.922 948.511 1018.95 857.207C1030.26 838.432 1048.86 811.84 1065.38 797.4C1076.67 787.525 1201.03 704.216 1174.89 677.806C1144.96 647.557 1019.35 688.584 723.002 683.501C666.045 674.288 455.021 604.069 412.009 645.438C404.459 652.701 408.555 663.62 413.338 670.925C446.971 722.294 480.154 740.277 518.576 785.603C545.676 817.574 561.996 871.089 581.715 906.522C600.236 939.803 631.182 975.791 656.707 1004.46C676.496 1026.68 709.653 1042.86 735.346 1057.62C746.198 1063.86 754.36 1047.7 766.846 1067.81C772.991 1068.54 791.523 1069.71 785.347 1069.36" fill="#CED4DA"/>
<path d="M749.343 1067.27C869.025 1074.2 963.922 948.511 1018.95 857.207C1030.26 838.432 1048.86 811.84 1065.38 797.4C1076.67 787.525 1201.03 704.216 1174.89 677.806C1144.96 647.557 1019.35 688.584 723.002 683.501C666.045 674.288 455.021 604.069 412.009 645.438C404.459 652.701 408.555 663.62 413.338 670.925C446.971 722.294 480.154 740.277 518.576 785.603C545.676 817.574 561.996 871.089 581.715 906.522C600.236 939.803 631.182 975.791 656.707 1004.46C676.496 1026.68 709.653 1042.86 735.346 1057.62C746.198 1063.86 754.36 1047.7 766.846 1067.81C772.991 1068.54 791.523 1069.71 785.347 1069.36" stroke="black" stroke-width="14.374" stroke-linecap="square" stroke-linejoin="bevel"/>
<path d="M974.482 1121.27L854.964 1083.57" stroke="black" stroke-width="14.374" stroke-miterlimit="2" stroke-linecap="round"/>
<path d="M998.401 1036.68L869.172 1054.61" stroke="black" stroke-width="14.374" stroke-miterlimit="2" stroke-linecap="round"/>
<path d="M678.926 1074.81L559.839 1131.55" stroke="black" stroke-width="14.374" stroke-miterlimit="2" stroke-linecap="round"/>
<path d="M668.559 1046.34L534.484 1060.13" stroke="black" stroke-width="14.374" stroke-miterlimit="2" stroke-linecap="round"/>
<path fill-rule="evenodd" clip-rule="evenodd" d="M795.71 736.925C835.111 739.208 950.564 667.113 983.509 700.408C1043.51 761.049 852.815 981.172 762.832 977.308C678.779 976.44 563.004 729.433 581.587 707.164C608.223 675.249 767.583 736.634 807.497 738.947" fill="#8A929A"/>
<path d="M795.71 736.925C835.111 739.208 950.564 667.113 983.509 700.408C1043.51 761.049 852.815 981.172 762.832 977.308C678.779 976.44 563.004 729.433 581.587 707.164C608.223 675.249 767.583 736.634 807.497 738.947" stroke="#8A929A" stroke-width="14.374" stroke-linecap="square" stroke-linejoin="bevel"/>
<path fill-rule="evenodd" clip-rule="evenodd" d="M902.582 776.602C950.495 779.316 1018.06 761.221 1024.41 719.934C1025.81 710.79 1010.27 703.318 1013.12 697.355C1046.72 642.794 1023.57 640.646 986.691 611.032C980.49 601.634 984.1 597.305 971.632 589.998C903.433 550.03 812.289 583.957 741.234 577.416C682.046 571.969 629.947 553.386 591.715 596.753C565.557 602.366 538.76 644.832 564.882 664.572C576.152 673.09 568.658 715.494 576.85 728.723C593.045 754.874 620.204 749.023 638.482 762.837C653.352 774.074 670.437 781.311 692.134 783.709C735.01 788.448 788.513 806.99 831.148 799.445C847.802 796.497 864.335 791.353 879.979 786.372C881.664 785.835 912.006 773.719 898.945 777.108" fill="#F8F9FA"/>
<path d="M902.582 776.602C950.495 779.316 1018.06 761.221 1024.41 719.934C1025.81 710.79 1010.27 703.318 1013.12 697.355C1046.72 642.794 1023.57 640.646 986.691 611.032C980.49 601.634 984.1 597.305 971.632 589.998C903.433 550.03 812.289 583.957 741.234 577.416C682.046 571.969 629.947 553.386 591.715 596.753C565.557 602.366 538.76 644.832 564.882 664.572C576.152 673.09 568.658 715.494 576.85 728.723C593.045 754.874 620.204 749.023 638.482 762.837C653.352 774.074 670.437 781.311 692.134 783.709C735.01 788.448 788.513 806.99 831.148 799.445C847.802 796.497 864.335 791.353 879.979 786.372C881.664 785.835 912.006 773.719 898.945 777.108" stroke="black" stroke-width="14.374" stroke-linecap="round" stroke-linejoin="bevel"/>
<path fill-rule="evenodd" clip-rule="evenodd" d="M967.425 518.816C1062.43 524.198 1042.89 388.178 950.301 402.767C876.245 414.436 895.441 515.27 961.101 518.989C964.937 519.206 971.741 521.438 983.37 519.056" fill="#F8F9FA"/>
<path d="M967.425 518.816C1062.43 524.198 1042.89 388.178 950.301 402.767C876.245 414.436 895.441 515.27 961.101 518.989C964.937 519.206 971.741 521.438 983.37 519.056" stroke="black" stroke-width="14.374" stroke-linecap="square" stroke-linejoin="bevel"/>
<path fill-rule="evenodd" clip-rule="evenodd" d="M791.545 726.685C965.568 736.543 911.354 630.612 910.632 552.632C910.399 527.504 942.675 463.643 933.436 461.141C852.973 439.358 499.941 667.779 704.592 714.332C726.874 719.401 775.395 726.617 806.79 727.216" fill="#D21D2F"/>
<path d="M791.545 726.685C965.568 736.543 911.354 630.612 910.632 552.632C910.399 527.504 942.675 463.643 933.436 461.141C852.973 439.358 499.941 667.779 704.592 714.332C726.874 719.401 775.395 726.617 806.79 727.216" stroke="black" stroke-width="14.374" stroke-linecap="square" stroke-linejoin="bevel"/>
<path fill-rule="evenodd" clip-rule="evenodd" d="M901.918 964.075C943.514 966.486 1003.1 878.231 970.277 846.593C906.863 815.107 853.26 932.314 884.918 962.38C889.959 962.519 913.11 967.632 913.497 960.959" fill="black"/>
<path d="M901.918 964.075C943.514 966.486 1003.1 878.231 970.277 846.593C906.863 815.107 853.26 932.314 884.918 962.38C889.959 962.519 913.11 967.632 913.497 960.959" stroke="black" stroke-width="14.374" stroke-linecap="square" stroke-linejoin="bevel"/>
<path fill-rule="evenodd" clip-rule="evenodd" d="M659.655 950.432C713.919 923.672 659.051 804.513 600.713 826.679C551.015 851.189 609.351 948.938 655.203 951.595C659.322 951.833 676.507 944.079 676.845 938.25" fill="black"/>
<path d="M659.655 950.432C713.919 923.672 659.051 804.513 600.713 826.679C551.015 851.189 609.351 948.938 655.203 951.595C659.322 951.833 676.507 944.079 676.845 938.25" stroke="black" stroke-width="14.374" stroke-linecap="round" stroke-linejoin="bevel"/>
<path fill-rule="evenodd" clip-rule="evenodd" d="M783.938 1088.79C867.686 1076.06 741.06 975.869 713.984 1055.22C707.567 1074.03 749.685 1088.85 763.458 1089.65C764.738 1089.72 792.147 1088.88 790.31 1087.02" fill="#E9B1BA"/>
<path d="M783.938 1088.79C867.686 1076.06 741.06 975.869 713.984 1055.22C707.567 1074.03 749.685 1088.85 763.458 1089.65C764.738 1089.72 792.147 1088.88 790.31 1087.02" stroke="black" stroke-width="14.374" stroke-linecap="round" stroke-linejoin="bevel"/>
<path d="M834.5 1061C850.151 1055 875.806 1039.51 879.221 1017.51C882.635 995.501 874.004 990 869.261 990" stroke="black" stroke-width="12" stroke-linecap="round"/>
<ellipse cx="651.922" cy="873.503" rx="34" ry="21" transform="rotate(34.2808 651.922 873.503)" fill="white"/>
<ellipse cx="950.418" cy="867.304" rx="34" ry="21" transform="rotate(-22.2333 950.418 867.304)" fill="white"/>
</svg>
