<?xml version="1.0" standalone="no"?>
<!DOCTYPE svg PUBLIC "-//W3C//DTD SVG 20010904//EN" "http://www.w3.org/TR/2001/REC-SVG-20010904/DTD/svg10.dtd">
<!-- Created using Krita: https://krita.org -->
<svg xmlns="http://www.w3.org/2000/svg" 
    xmlns:xlink="http://www.w3.org/1999/xlink"
    xmlns:krita="http://krita.org/namespaces/svg/krita"
    xmlns:sodipodi="http://sodipodi.sourceforge.net/DTD/sodipodi-0.dtd"
    width="1080pt"
    height="1080pt"
    viewBox="0 0 1080 1080">
<defs/>
<path id="shape0" transform="translate(215.901538278522, 75.3613955547398)" fill="#6f2733" fill-rule="evenodd" stroke="#000000" stroke-width="7" stroke-linecap="square" stroke-linejoin="bevel" d="M0 351.153L101.166 409.006L268.678 211.054C310.396 402.973 352.114 594.893 393.832 786.812L230.132 817.273C234.219 853.671 238.306 890.068 242.393 926.466C404.041 897.529 565.688 868.593 727.335 839.657L703.462 732.014L534.661 748.942L371.165 0L239.379 20.9426C220.237 49.5803 140.444 159.651 0 351.153Z" sodipodi:nodetypes="cccccccccccc"/><path id="shape1" transform="translate(403.233934858692, 113.297268708557)" fill="#e9ecef" fill-rule="evenodd" stroke="#e9ecef" stroke-width="7" stroke-linecap="square" stroke-linejoin="bevel" d="M43.0552 0L196.263 26.2412L211.183 103.507L0.000168161 61.2296C-0.0566702 61.0249 14.295 40.6151 43.0552 0Z" sodipodi:nodetypes="ccccc"/><path id="shape2" transform="translate(493.607104795737, 324.6082886012)" fill="#e9ecef" fill-rule="evenodd" stroke="#e9ecef" stroke-width="7" stroke-linecap="square" stroke-linejoin="bevel" d="M0 0L151.247 19.0287L170.345 107.42L16.7105 91.7676C16.8242 91.7676 11.254 61.1784 0 0Z" sodipodi:nodetypes="ccccc"/><path id="shape3" transform="translate(530.71592659586, 503.288706997445)" fill="#e9ecef" fill-rule="evenodd" stroke="#e9ecef" stroke-width="7" stroke-linecap="square" stroke-linejoin="bevel" d="M0 0L151.822 9.61197L169.726 94.6274L19.593 80.0181C18.5381 69.7458 12.0071 43.0731 0 0Z" sodipodi:nodetypes="ccccc"/><path id="shape4" transform="translate(570.509413854352, 683.238538048626)" fill="#e9ecef" fill-rule="evenodd" stroke="#e9ecef" stroke-width="7" stroke-linecap="square" stroke-linejoin="bevel" d="M0 0L152.952 18.8753L168.81 96.9852L16.1989 87.7777C16.1989 87.88 10.7993 58.6208 0 0Z" sodipodi:nodetypes="ccccc"/><path id="shape5" transform="translate(248.836661984588, 323.856038005664)" fill="#e9ecef" fill-rule="evenodd" stroke="#e9ecef" stroke-width="7" stroke-linecap="square" stroke-linejoin="bevel" d="M0 62.4055L114.385 103.25L165.171 42.8768L43.5449 1.46638C46.2308 -5.8886 31.7158 14.4244 0 62.4055Z" sodipodi:nodetypes="ccccc"/><path id="shape6" transform="translate(540, 818.588080202084)" fill="#e9ecef" fill-rule="evenodd" stroke="#e9ecef" stroke-width="7" stroke-linecap="square" stroke-linejoin="bevel" d="M0 58.3139L115.767 146.092L314.588 112.945L59.3265 0L67.8522 42.8147C67.7385 42.8147 45.1211 47.9811 0 58.3139Z" sodipodi:nodetypes="cccccc"/><path id="shape01" transform="translate(215.49140369482, 75.0714847184177)" fill="none" stroke="#000000" stroke-width="7" stroke-linecap="square" stroke-linejoin="bevel" d="M0 351.153L101.166 409.006L268.678 211.054C310.396 402.973 352.114 594.893 393.832 786.812L230.132 817.273C234.219 853.671 238.306 890.068 242.393 926.466C404.041 897.529 565.688 868.593 727.335 839.657L703.462 732.014L534.661 748.942L371.165 0L239.379 20.9426C220.237 49.5803 140.444 159.651 0 351.153Z" sodipodi:nodetypes="cccccccccccc"/><path id="shape7" transform="translate(298.66781103372, 198.792481522972)" fill="#3bbeff" fill-rule="evenodd" stroke="#000000" stroke-width="7" stroke-linecap="square" stroke-linejoin="bevel" d="M356.006 91.6968C350.681 89.4853 379.085 82.3042 331.77 67.1734C308.114 58.2092 88.9914 -2.48116 77.6139 0.0786806C76.354 0.362157 60.5177 12.4833 59.8208 13.3614C46.5583 30.0716 56.7854 38.7491 29.7599 46.8564C20.8265 49.5363 -5.15557 93.4475 0.907142 100.95C16.9525 120.805 121.313 133.376 146.417 133.759C194.654 134.495 326.162 137.01 357.008 90.743C357.942 89.3426 366.036 84.2355 367.719 84.2355" sodipodi:nodetypes="ccccccccc"/><path id="shape8" transform="translate(660.756985355226, 178.269162571674)" fill="#3bbeff" fill-rule="evenodd" stroke="#000000" stroke-width="7" stroke-linecap="square" stroke-linejoin="bevel" d="M5.17947 93.5668C-11.811 93.5668 18.118 51.7996 21.89 47.6063C22.2078 47.2529 22.5103 46.8858 22.8278 46.5321C34.1591 33.9062 45.9419 21.2223 59.1475 10.4695C62.9919 7.33921 70.8278 -3.69559 70.8278 1.26208C70.8278 31.6709 66.2799 85.8156 32.3766 96.7127C30.6525 97.2668 0.149276 101.184 0.149276 95.6385" sodipodi:nodetypes="ccccccc"/><path id="shape9" transform="translate(662.295681410379, 290.330197878983)" fill="#3bbeff" fill-rule="evenodd" stroke="#000000" stroke-width="7" stroke-linecap="square" stroke-linejoin="bevel" d="M2.1914 7.5168C2.1914 40.1008 51.2821 56.8938 78.5822 60.3062C80.5908 60.5573 108.167 64.1822 108.167 63.5288C69.2497 4.15956 23.1541 -10.5506 1.59459 6.82624C-0.465485 6.82624 0.059958 7.36121 0.059958 9.58848" sodipodi:nodetypes="ccccc"/><ellipse id="shape10" transform="translate(641.898756660746, 269.521830596779)" rx="21.5" ry="18.9328228607515" cx="21.5" cy="18.9328228607515" fill="#3bbeff" fill-rule="evenodd" stroke="#000000" stroke-width="7" stroke-linecap="square" stroke-linejoin="bevel"/><path id="shape11" transform="translate(367.738721136767, 251.598310704136)" fill="none" stroke="#000000" stroke-width="7" stroke-linecap="square" stroke-linejoin="miter" stroke-miterlimit="2" d="M0 0C21.6929 40.8032 170.799 20.1029 256.199 30.1544" sodipodi:nodetypes="cc"/>
</svg>
